<svg width="72" height="73" viewBox="0 0 72 73" fill="none" xmlns="http://www.w3.org/2000/svg">
<g clip-path="url(#clip0_1_2)">
<path d="M35.34 24.416L24.79 30.506V42.686L35.34 48.776L45.88 42.686V30.506L35.34 24.416Z" fill="#163357"/>
<path d="M57.5698 23.756H69.6998L63.6398 13.256L57.5698 23.756Z" fill="#FFBC00"/>
<path d="M57.5698 49.426L63.6398 59.936L69.6998 49.426H57.5698Z" fill="#FFBC00"/>
<path d="M29.27 72.776H41.4L35.34 62.266L29.27 72.776Z" fill="#FFBC00"/>
<path d="M0.970215 49.426L7.04021 59.936L13.1102 49.426H0.970215Z" fill="#FFBC00"/>
<path d="M0.970215 23.756H13.1102L7.04021 13.256L0.970215 23.756Z" fill="#FFBC00"/>
<path d="M29.27 0.416016L35.34 10.926L41.4 0.416016H29.27Z" fill="#FFBC00"/>
<path d="M46.9145 2.46457L39.8745 14.6582L52.0681 21.6982L59.1081 9.50457L46.9145 2.46457Z" fill="#F43BA6"/>
<path d="M71.08 29.416H57V43.496H71.08V29.416Z" fill="#F43BA6"/>
<path d="M52.0662 51.4746L39.8726 58.5146L46.9126 70.7083L59.1062 63.6683L52.0662 51.4746Z" fill="#F43BA6"/>
<path d="M18.6084 51.4781L11.5684 63.6718L23.762 70.7118L30.802 58.5181L18.6084 51.4781Z" fill="#F43BA6"/>
<path d="M14.08 29.556H0V43.636H14.08V29.556Z" fill="#F43BA6"/>
<path d="M23.763 2.47073L11.5693 9.51073L18.6093 21.7044L30.803 14.6644L23.763 2.47073Z" fill="#F43BA6"/>
</g>
<defs>
<clipPath id="clip0_1_2">
<rect width="72" height="73" fill="white"/>
</clipPath>
</defs>
</svg>
