<svg xmlns="http://www.w3.org/2000/svg" width="100" height="36" viewBox="0 0 100 36" fill="none" role="presentation">
<g clip-path="url(#clip0_124_3368)">
<path d="M43.4119 16.2537C42.4383 16.2537 41.5701 16.0498 40.8074 15.6397C40.0446 15.2308 39.4436 14.6696 39.0078 13.9561C38.5707 13.2426 38.3528 12.433 38.3528 11.5262V3.69507H40.9245V11.3598C40.9245 11.846 41.0323 12.2865 41.2479 12.6779C41.4635 13.0704 41.7587 13.3773 42.1348 13.5988C42.5109 13.8202 42.9362 13.9303 43.4119 13.9303C43.8876 13.9303 44.3269 13.8202 44.6971 13.5988C45.0674 13.3773 45.3603 13.0704 45.5759 12.6779C45.7914 12.2854 45.8992 11.846 45.8992 11.3598V3.69507H48.4709V11.525C48.4709 12.4318 48.2518 13.2426 47.816 13.9549C47.379 14.6685 46.7791 15.2297 46.0164 15.6386C45.2537 16.0486 44.3855 16.2525 43.4119 16.2525V16.2537Z" fill="#FFFFFF"></path>
<path d="M58.0958 8.43075C57.8076 7.91641 57.408 7.51572 56.8925 7.2275C56.3782 6.94045 55.7783 6.79634 55.0929 6.79634C54.4626 6.79634 53.9131 6.92639 53.4421 7.18532C53.0578 7.39738 52.7649 7.71021 52.5552 8.1109V6.99552H50.233V16.0533H52.7216V10.7611C52.7216 10.4073 52.7907 10.1027 52.9289 9.84841C53.0672 9.59417 53.2628 9.39499 53.5183 9.25089C53.7725 9.10795 54.0595 9.03531 54.3806 9.03531C54.7016 9.03531 55.0027 9.10795 55.2511 9.25089C55.5006 9.39499 55.694 9.59417 55.8322 9.84841C55.9705 10.1027 56.0396 10.4073 56.0396 10.7611V16.0533H58.5281V10.2304C58.5281 9.54496 58.384 8.94509 58.0969 8.43075H58.0958Z" fill="#FFFFFF"></path>
<path d="M60.1016 6.18359V3.69507H62.5901V6.18359H60.1016ZM60.1016 16.0545V6.99669H62.5901V16.0545H60.1016Z" fill="#FFFFFF"></path>
<path d="M68.5911 16.1541C67.4957 16.1541 66.6474 15.8588 66.044 15.2671C65.4407 14.6755 65.1395 13.8483 65.1395 12.7868V9.15364H63.6129V6.99669H63.6961C64.1601 6.99669 64.5174 6.8807 64.7658 6.64755C65.0142 6.41557 65.1384 6.06642 65.1384 5.60246V4.93933H67.6269V6.99669H69.751V9.15364H67.6269V12.6205C67.6269 12.9309 67.682 13.1875 67.7933 13.3926C67.9034 13.5976 68.0756 13.7487 68.3076 13.8483C68.5396 13.9479 68.8278 13.9971 69.1711 13.9971C69.2484 13.9971 69.3363 13.9913 69.4359 13.9807C69.5355 13.9702 69.6397 13.9584 69.751 13.9479V16.0545C69.5847 16.0767 69.3972 16.0978 69.1863 16.1213C68.9766 16.1435 68.7774 16.1541 68.59 16.1541H68.5911Z" fill="#FFFFFF"></path>
<path d="M77.6196 6.99669L75.4802 12.8243L73.3409 6.99669H70.6696L74.2383 16.051L74.0708 16.4353C73.9384 16.7223 73.7662 16.9801 73.5565 17.2073C73.3467 17.4335 72.9976 17.5471 72.5114 17.5471C72.3345 17.5471 72.1411 17.5307 71.9302 17.4967C71.7205 17.4628 71.5378 17.4253 71.3831 17.3807V19.4217C71.5706 19.5213 71.7896 19.5928 72.038 19.6373C72.2876 19.6818 72.5442 19.7041 72.8101 19.7041C73.3631 19.7041 73.8634 19.6021 74.311 19.3971C74.7585 19.1921 75.1592 18.8804 75.5142 18.4598C75.8681 18.0392 76.1668 17.519 76.4105 16.9004L80.2921 6.99669H77.6196Z" fill="#FFFFFF"></path>
<path d="M44.1266 31.589C43.242 31.589 42.4207 31.4285 41.6627 31.1074C40.9046 30.7864 40.2438 30.3389 39.6803 29.7636C39.1167 29.1883 38.6762 28.5135 38.361 27.7402C38.0459 26.9658 37.8877 26.1199 37.8877 25.2013C37.8877 24.2828 38.0423 23.4345 38.3528 22.6554C38.6621 21.8751 39.0991 21.2014 39.6627 20.632C40.2262 20.0626 40.887 19.6197 41.6451 19.3045C42.4019 18.9894 43.2291 18.8324 44.1254 18.8324C45.0217 18.8324 45.8254 18.9812 46.5389 19.2799C47.2524 19.5787 47.857 19.9771 48.3549 20.475C48.8529 20.9729 49.2067 21.5259 49.4164 22.134L47.1435 23.2283C46.9326 22.6308 46.5647 22.1363 46.0398 21.7439C45.5149 21.3514 44.8752 21.1545 44.123 21.1545C43.3709 21.1545 42.7523 21.3256 42.1993 21.6689C41.6462 22.0122 41.2174 22.4843 40.914 23.0877C40.6094 23.6911 40.4582 24.3952 40.4582 25.2025C40.4582 26.0097 40.6105 26.7174 40.914 27.3254C41.2174 27.9335 41.6462 28.4092 42.1993 28.7525C42.7523 29.0958 43.3943 29.2668 44.123 29.2668C44.8518 29.2668 45.5138 29.07 46.0398 28.6775C46.5647 28.285 46.9326 27.7894 47.1435 27.1919L49.4164 28.2873C49.2067 28.8954 48.8529 29.4484 48.3549 29.9464C47.857 30.4443 47.2513 30.8426 46.5389 31.1414C45.8254 31.4402 45.0205 31.589 44.1254 31.589H44.1266Z" fill="#FFFFFF"></path>
<path d="M64.4155 31.4894C63.32 31.4894 62.4718 31.1941 61.8684 30.6025C61.265 30.0108 60.9639 29.1836 60.9639 28.1221V24.489H59.4373V22.332H59.5205C59.9844 22.332 60.3418 22.216 60.5902 21.9829C60.8385 21.7509 60.9627 21.4017 60.9627 20.9378V20.2746H63.4512V22.332H65.5754V24.489H63.4512V27.9558C63.4512 28.2663 63.5063 28.5228 63.6176 28.7279C63.7277 28.9329 63.9 29.084 64.132 29.1836C64.3639 29.2832 64.6522 29.3324 64.9954 29.3324C65.0728 29.3324 65.1606 29.3266 65.2602 29.316C65.3598 29.3055 65.4641 29.2938 65.5754 29.2832V31.3898C65.409 31.4121 65.2216 31.4331 65.0107 31.4566C64.8009 31.4788 64.6018 31.4894 64.4143 31.4894H64.4155Z" fill="#FFFFFF"></path>
<path d="M56.7015 22.5476C56.1157 22.2711 55.4409 22.1328 54.6782 22.1328C54.0361 22.1328 53.4444 22.2324 52.9032 22.4316C52.3607 22.6308 51.8967 22.9131 51.5089 23.2775C51.1211 23.6419 50.8399 24.0801 50.663 24.5874L52.6536 25.5329C52.8083 25.1357 53.0543 24.8135 53.3917 24.571C53.7291 24.3284 54.1193 24.2066 54.561 24.2066C55.025 24.2066 55.3928 24.3226 55.6647 24.5557C55.9353 24.7877 56.0712 25.0759 56.0712 25.4181V25.6606L53.5663 26.066C52.8469 26.1761 52.2471 26.3647 51.7667 26.6295C51.2863 26.8943 50.929 27.2247 50.697 27.616C50.465 28.0085 50.3479 28.4596 50.3479 28.9681C50.3479 29.5105 50.4756 29.978 50.7298 30.3693C50.984 30.7618 51.3496 31.0629 51.8253 31.2738C52.3009 31.4835 52.8645 31.589 53.5171 31.589C54.0033 31.589 54.4462 31.5257 54.8445 31.398C55.2429 31.2715 55.6014 31.077 55.9224 30.8169C56.0314 30.729 56.1357 30.6294 56.2376 30.5263V31.3898H58.5597V25.4181C58.5597 24.7655 58.3969 24.1925 58.07 23.7005C57.7431 23.2084 57.2874 22.8241 56.7015 22.5476ZM55.8146 28.7771C55.6436 29.0817 55.4022 29.3219 55.0929 29.4988C54.7836 29.6757 54.4239 29.7636 54.015 29.7636C53.7057 29.7636 53.4456 29.6863 53.2359 29.5316C53.025 29.377 52.9207 29.1614 52.9207 28.8849C52.9207 28.5861 53.0145 28.3565 53.2031 28.196C53.3906 28.0354 53.6624 27.923 54.0162 27.8562L56.0736 27.4883V27.773C56.0736 28.1386 55.988 28.4725 55.8158 28.7771H55.8146Z" fill="#FFFFFF"></path>
<path d="M74.3942 23.7005C74.0684 23.2084 73.6115 22.8241 73.0257 22.5476C72.4399 22.2711 71.765 22.1328 71.0023 22.1328C70.3603 22.1328 69.7686 22.2324 69.2273 22.4316C68.6849 22.6308 68.2209 22.9131 67.8331 23.2775C67.4453 23.6419 67.1641 24.0801 66.9872 24.5874L68.9778 25.5329C69.1324 25.1357 69.3785 24.8135 69.7159 24.571C70.0533 24.3284 70.4435 24.2066 70.8852 24.2066C71.3491 24.2066 71.717 24.3226 71.9888 24.5557C72.2595 24.7877 72.3954 25.0759 72.3954 25.4181V25.6606L69.8905 26.066C69.1711 26.1761 68.5712 26.3647 68.0908 26.6295C67.6105 26.8943 67.2531 27.2247 67.0212 27.616C66.7892 28.0085 66.672 28.4596 66.672 28.9681C66.672 29.5105 66.7997 29.978 67.054 30.3693C67.3082 30.7618 67.6738 31.0629 68.1494 31.2738C68.6251 31.4835 69.1887 31.589 69.8412 31.589C70.3275 31.589 70.7703 31.5257 71.1687 31.398C71.567 31.2715 71.9256 31.077 72.2466 30.8169C72.3555 30.729 72.4598 30.6294 72.5617 30.5263V31.3898H74.8839V25.4181C74.8839 24.7655 74.721 24.1925 74.3942 23.7005ZM72.1388 28.7771C71.9677 29.0817 71.7264 29.3219 71.4171 29.4988C71.1078 29.6757 70.7481 29.7636 70.3392 29.7636C70.0299 29.7636 69.7698 29.6863 69.5601 29.5316C69.3492 29.377 69.2449 29.1614 69.2449 28.8849C69.2449 28.5861 69.3386 28.3565 69.5273 28.196C69.7147 28.0354 69.9865 27.923 70.3404 27.8562L72.3977 27.4883V27.773C72.3977 28.1386 72.3122 28.4725 72.14 28.7771H72.1388Z" fill="#FFFFFF"></path>
<path d="M76.3531 31.3898V20.4844L78.8416 19.1593V31.3898H76.3531Z" fill="#FFFFFF"></path>
<path d="M84.9376 31.589C84.0413 31.589 83.2258 31.3851 82.4912 30.975C81.7554 30.5661 81.1696 30.0049 80.7326 29.2914C80.2956 28.5779 80.0777 27.7683 80.0777 26.8615C80.0777 25.9547 80.2956 25.131 80.7326 24.4222C81.1696 23.7145 81.7554 23.1557 82.4912 22.7468C83.227 22.3379 84.0424 22.1328 84.9376 22.1328C85.8327 22.1328 86.6458 22.3379 87.3769 22.7468C88.1068 23.1568 88.6902 23.7145 89.1273 24.4222C89.5643 25.1298 89.7822 25.9429 89.7822 26.8615C89.7822 27.78 89.5631 28.5791 89.1273 29.2914C88.6902 30.0049 88.1068 30.5661 87.3769 30.975C86.6469 31.3851 85.8338 31.589 84.9376 31.589ZM84.9376 29.3488C85.391 29.3488 85.7858 29.2446 86.1232 29.0337C86.4607 28.8239 86.7266 28.531 86.9199 28.155C87.1133 27.7789 87.2105 27.3477 87.2105 26.8615C87.2105 26.3753 87.1133 25.9465 86.9199 25.5762C86.7266 25.206 86.4607 24.9119 86.1232 24.6975C85.7858 24.4819 85.391 24.3741 84.9376 24.3741C84.4841 24.3741 84.0858 24.4819 83.7425 24.6975C83.3992 24.9131 83.1309 25.206 82.9376 25.5762C82.7443 25.9465 82.647 26.3753 82.647 26.8615C82.647 27.3477 82.7443 27.7789 82.9376 28.155C83.1309 28.531 83.3992 28.8251 83.7425 29.0337C84.0858 29.2446 84.4841 29.3488 84.9376 29.3488Z" fill="#FFFFFF"></path>
<path d="M97.6777 22.332V23.288C97.4036 22.9659 97.0954 22.7081 96.7486 22.523C96.2624 22.2629 95.6918 22.1328 95.0404 22.1328C94.2109 22.1328 93.4693 22.3215 92.8179 22.6964C92.1653 23.0725 91.6509 23.5892 91.2748 24.2476C90.8988 24.9061 90.7101 25.6606 90.7101 26.5123C90.7101 27.3641 90.8988 28.1245 91.2748 28.7935C91.6509 29.4625 92.17 29.9885 92.8343 30.3693C93.4986 30.7513 94.2496 30.9422 95.0908 30.9422C95.7434 30.9422 96.3128 30.818 96.799 30.5685C97.0638 30.4326 97.3005 30.2557 97.5125 30.0436V30.9083C97.5125 31.2961 97.4317 31.6323 97.2724 31.9205C97.1118 32.2076 96.8822 32.4267 96.5834 32.5755C96.2847 32.7254 95.9309 32.7993 95.522 32.7993C95.0018 32.7993 94.5542 32.6774 94.1781 32.4349C93.802 32.1912 93.5525 31.8596 93.4318 31.439L91.126 32.2521C91.3147 32.8157 91.6205 33.3054 92.0469 33.7201C92.4722 34.1349 92.9842 34.4583 93.5818 34.6902C94.1793 34.9222 94.826 35.0382 95.5231 35.0382C96.3972 35.0382 97.1681 34.8613 97.8371 34.5075C98.5061 34.1536 99.0345 33.6639 99.4211 33.0394C99.8077 32.415 100.002 31.7038 100.002 30.9083V22.332H97.6777ZM97.2548 27.6734C97.0837 27.9944 96.8424 28.244 96.5331 28.4197C96.2238 28.5967 95.8582 28.6845 95.4388 28.6845C95.0193 28.6845 94.6444 28.5931 94.3187 28.4104C93.9918 28.2276 93.7376 27.9769 93.5548 27.6558C93.372 27.3348 93.2818 26.9646 93.2818 26.544C93.2818 26.1234 93.3732 25.7332 93.5548 25.4075C93.7376 25.0818 93.9918 24.8264 94.3187 24.6448C94.6444 24.462 95.0182 24.3706 95.4388 24.3706C95.8594 24.3706 96.2074 24.462 96.5167 24.6448C96.826 24.8276 97.0697 25.0818 97.2466 25.4075C97.4235 25.7332 97.5114 26.1128 97.5114 26.544C97.5114 26.9751 97.4258 27.3512 97.2536 27.6722L97.2548 27.6734Z" fill="#FFFFFF"></path>
<path d="M16.3105 12.0369L11.4424 14.8476V20.469L16.3105 23.2797L21.1785 20.469V14.8476L16.3105 12.0369Z" fill="#FFFFFF"></path>
<path d="M26.5713 11.7334H32.1705L29.3703 6.88525L26.5713 11.7334Z" fill="#FFBC00"></path>
<path d="M26.5713 23.582L29.3703 28.4314L32.1705 23.582H26.5713Z" fill="#FFBC00"></path>
<path d="M13.5098 34.355H19.1089L16.3099 29.5068L13.5098 34.355Z" fill="#FFBC00"></path>
<path d="M0.450195 23.582L3.24919 28.4314L6.04936 23.582H0.450195Z" fill="#FFBC00"></path>
<path d="M0.450195 11.7334H6.04936L3.24919 6.88525L0.450195 11.7334Z" fill="#FFBC00"></path>
<path d="M13.5098 0.960449L16.3099 5.80978L19.1089 0.960449H13.5098Z" fill="#FFBC00"></path>
<path d="M21.6512 1.91034L18.4023 7.5376L24.0296 10.7865L27.2785 5.15924L21.6512 1.91034Z" fill="#F43BA6"></path>
<path d="M32.6189 14.4097H26.1211V20.9075H32.6189V14.4097Z" fill="#F43BA6"></path>
<path d="M24.0286 24.5292L18.4014 27.7781L21.6503 33.4053L27.2775 30.1564L24.0286 24.5292Z" fill="#F43BA6"></path>
<path d="M8.5907 24.5305L5.3418 30.1577L10.9691 33.4066L14.218 27.7794L8.5907 24.5305Z" fill="#F43BA6"></path>
<path d="M6.4978 14.4084H0V20.9062H6.4978V14.4084Z" fill="#F43BA6"></path>
<path d="M10.9681 1.90784L5.34082 5.15674L8.58972 10.784L14.217 7.5351L10.9681 1.90784Z" fill="#F43BA6"></path>
</g>
<defs>
<clipPath id="clip0_124_3368">
<rect width="100" height="34.0789" fill="white" transform="translate(0 0.960449)"></rect>
</clipPath>
</defs>
</svg>