<svg width="457" height="73" viewBox="0 0 457 73" fill="none" xmlns="http://www.w3.org/2000/svg">
<g clip-path="url(#clip0_94_1383)">
<path d="M114.1 41.3201C114.1 42.9901 113.73 44.5001 112.99 45.8501C112.25 47.2001 111.24 48.2501 109.97 49.0101C108.7 49.7701 107.22 50.1501 105.55 50.1501C103.88 50.1501 102.45 49.7701 101.16 49.0101C99.8699 48.2501 98.8499 47.2001 98.1099 45.8501C97.3699 44.5001 96.9999 42.9901 96.9999 41.3201V14.9801H88.1599V41.8901C88.1599 45.0101 88.9099 47.7901 90.4099 50.2401C91.9099 52.6901 93.9699 54.6201 96.5999 56.0301C99.2199 57.4401 102.2 58.1401 105.55 58.1401C108.9 58.1401 111.88 57.4401 114.5 56.0301C117.12 54.6301 119.18 52.7001 120.69 50.2401C122.19 47.7901 122.94 45.0101 122.94 41.8901V14.9801H114.1V41.3201Z" fill="white"/>
<path d="M151.87 27.1201C150.1 26.1301 148.04 25.6401 145.68 25.6401C143.51 25.6401 141.62 26.0901 140.01 26.9801C138.69 27.7101 137.68 28.7801 136.96 30.1601V26.3301H128.98V57.4501H137.53V39.2701C137.53 38.0501 137.77 37.0101 138.24 36.1301C138.71 35.2601 139.39 34.5701 140.26 34.0801C141.13 33.5901 142.12 33.3401 143.22 33.3401C144.32 33.3401 145.36 33.5901 146.21 34.0801C147.07 34.5701 147.73 35.2601 148.21 36.1301C148.68 37.0101 148.92 38.0501 148.92 39.2701V57.4501H157.47V37.4401C157.47 35.0901 156.98 33.0201 155.99 31.2501C155 29.4801 153.62 28.1101 151.86 27.1201H151.87Z" fill="white"/>
<path d="M171.45 14.9801H162.9V23.5301H171.45V14.9801Z" fill="white"/>
<path d="M171.45 26.3201H162.9V57.4401H171.45V26.3201Z" fill="white"/>
<path d="M188.76 19.2501H180.21V21.5301C180.21 23.1301 179.78 24.3201 178.93 25.1201C178.07 25.9201 176.85 26.3201 175.25 26.3201H174.97V33.7301H180.21V46.2101C180.21 49.8601 181.24 52.7001 183.32 54.7301C185.39 56.7601 188.31 57.7801 192.07 57.7801C192.72 57.7801 193.4 57.7401 194.12 57.6701C194.84 57.5901 195.49 57.5201 196.06 57.4401V50.2001C195.68 50.2401 195.32 50.2801 194.98 50.3101C194.64 50.3501 194.33 50.3701 194.07 50.3701C192.89 50.3701 191.9 50.2001 191.1 49.8601C190.3 49.5201 189.71 49.0001 189.33 48.2901C188.95 47.5901 188.76 46.7001 188.76 45.6401V33.7301H196.06V26.3201H188.76V19.2501Z" fill="white"/>
<path d="M215.74 46.3501L208.39 26.3201H199.21L211.47 57.4301L210.89 58.7501C210.43 59.7401 209.84 60.6201 209.12 61.4001C208.4 62.1801 207.2 62.5701 205.53 62.5701C204.92 62.5701 204.26 62.5101 203.53 62.4001C202.81 62.2901 202.18 62.1501 201.65 62.0001V69.0101C202.3 69.3501 203.05 69.6001 203.9 69.7501C204.76 69.9001 205.64 69.9801 206.55 69.9801C208.45 69.9801 210.17 69.6301 211.71 68.9301C213.25 68.2301 214.63 67.1501 215.84 65.7101C217.06 64.2701 218.08 62.4801 218.92 60.3501L232.26 26.3201H223.08L215.73 46.3501H215.74Z" fill="white"/>
<path d="M258.19 24.0601C260.09 22.8801 262.29 22.2901 264.8 22.2901C267.31 22.2901 269.58 22.9601 271.38 24.3101C273.18 25.6601 274.45 27.3601 275.17 29.4101L282.98 25.6501C282.26 23.5601 281.04 21.6601 279.33 19.9501C277.62 18.2401 275.54 16.8701 273.09 15.8501C270.64 14.8201 267.87 14.3101 264.8 14.3101C261.73 14.3101 258.88 14.8501 256.28 15.9301C253.68 17.0101 251.41 18.5301 249.47 20.4901C247.53 22.4501 246.03 24.7701 244.97 27.4401C243.9 30.1201 243.37 33.0401 243.37 36.1901C243.37 39.3401 243.91 42.2501 245 44.9101C246.08 47.5701 247.59 49.8901 249.53 51.8601C251.47 53.8401 253.74 55.3801 256.34 56.4801C258.94 57.5801 261.76 58.1301 264.8 58.1301C267.84 58.1301 270.64 57.6201 273.09 56.5901C275.54 55.5601 277.62 54.2001 279.33 52.4901C281.04 50.7801 282.26 48.8801 282.98 46.7901L275.17 43.0301C274.45 45.0801 273.18 46.7801 271.38 48.1301C269.57 49.4801 267.38 50.1501 264.8 50.1501C262.22 50.1501 260.09 49.5601 258.19 48.3801C256.29 47.2001 254.82 45.5701 253.77 43.4801C252.72 41.3901 252.2 38.9601 252.2 36.1801C252.2 33.4001 252.72 30.9801 253.77 28.9101C254.81 26.8401 256.29 25.2101 258.19 24.0401V24.0601Z" fill="white"/>
<path d="M308.01 27.0801C306 26.1301 303.68 25.6601 301.06 25.6601C298.86 25.6601 296.82 26.0001 294.96 26.6901C293.1 27.3701 291.5 28.3401 290.17 29.6001C288.84 30.8501 287.87 32.3601 287.26 34.1001L294.1 37.3501C294.63 35.9801 295.48 34.8801 296.64 34.0401C297.8 33.2101 299.14 32.7901 300.66 32.7901C302.26 32.7901 303.52 33.1901 304.45 33.9901C305.38 34.7901 305.85 35.7801 305.85 36.9501V37.7801L297.24 39.1701C294.77 39.5501 292.71 40.2001 291.05 41.1101C289.39 42.0201 288.17 43.1501 287.37 44.5001C286.57 45.8501 286.17 47.4001 286.17 49.1501C286.17 51.0101 286.61 52.6201 287.48 53.9701C288.35 55.3201 289.61 56.3501 291.24 57.0801C292.87 57.8001 294.81 58.1601 297.06 58.1601C298.73 58.1601 300.25 57.9401 301.62 57.5001C302.99 57.0601 304.22 56.4001 305.33 55.5001C305.7 55.2001 306.06 54.8601 306.41 54.5001V57.4701H314.39V36.9501C314.39 34.7101 313.83 32.7401 312.71 31.0501C311.59 29.3601 310.02 28.0401 308.01 27.0901V27.0801ZM304.96 48.4801C304.37 49.5301 303.54 50.3501 302.48 50.9601C301.42 51.5701 300.18 51.8701 298.77 51.8701C297.71 51.8701 296.81 51.6001 296.09 51.0701C295.37 50.5401 295.01 49.8001 295.01 48.8501C295.01 47.8201 295.33 47.0401 295.98 46.4801C296.63 45.9301 297.56 45.5401 298.77 45.3101L305.84 44.0501V45.0301C305.84 46.2801 305.55 47.4301 304.96 48.4801Z" fill="white"/>
<path d="M331.21 19.2701H322.66V21.5501C322.66 23.1501 322.23 24.3401 321.38 25.1401C320.52 25.9401 319.3 26.3401 317.7 26.3401H317.42V33.7501H322.66V46.2301C322.66 49.8801 323.69 52.7201 325.77 54.7501C327.84 56.7801 330.76 57.8001 334.52 57.8001C335.17 57.8001 335.85 57.7601 336.57 57.6901C337.29 57.6101 337.94 57.5401 338.51 57.4601V50.2201C338.13 50.2601 337.77 50.3001 337.43 50.3301C337.09 50.3701 336.78 50.3901 336.52 50.3901C335.34 50.3901 334.35 50.2201 333.55 49.8801C332.75 49.5401 332.16 49.0201 331.78 48.3101C331.4 47.6101 331.21 46.7201 331.21 45.6601V33.7501H338.51V26.3401H331.21V19.2701Z" fill="white"/>
<path d="M364.11 27.0801C362.1 26.1301 359.78 25.6601 357.16 25.6601C354.96 25.6601 352.92 26.0001 351.06 26.6901C349.2 27.3701 347.6 28.3401 346.27 29.6001C344.94 30.8501 343.97 32.3601 343.36 34.1001L350.2 37.3501C350.73 35.9801 351.58 34.8801 352.74 34.0401C353.9 33.2101 355.24 32.7901 356.76 32.7901C358.36 32.7901 359.62 33.1901 360.55 33.9901C361.48 34.7901 361.95 35.7801 361.95 36.9501V37.7801L353.34 39.1701C350.87 39.5501 348.81 40.2001 347.15 41.1101C345.49 42.0201 344.27 43.1501 343.47 44.5001C342.67 45.8501 342.27 47.4001 342.27 49.1501C342.27 51.0101 342.71 52.6201 343.58 53.9701C344.45 55.3201 345.71 56.3501 347.34 57.0801C348.97 57.8001 350.91 58.1601 353.16 58.1601C354.83 58.1601 356.35 57.9401 357.72 57.5001C359.09 57.0601 360.32 56.4001 361.43 55.5001C361.8 55.2001 362.16 54.8601 362.51 54.5001V57.4701H370.49V36.9501C370.49 34.7101 369.93 32.7401 368.81 31.0501C367.69 29.3601 366.12 28.0401 364.11 27.0901V27.0801ZM361.05 48.4801C360.46 49.5301 359.63 50.3501 358.57 50.9601C357.51 51.5701 356.27 51.8701 354.86 51.8701C353.8 51.8701 352.9 51.6001 352.18 51.0701C351.46 50.5401 351.1 49.8001 351.1 48.8501C351.1 47.8201 351.42 47.0401 352.07 46.4801C352.72 45.9301 353.65 45.5401 354.86 45.3101L361.93 44.0501V45.0301C361.93 46.2801 361.64 47.4301 361.05 48.4801Z" fill="white"/>
<path d="M375.54 57.4601H384.09V15.4401L375.54 19.9901V57.4601Z" fill="white"/>
<path d="M413.41 27.7601C410.9 26.3601 408.11 25.6501 405.03 25.6501C401.95 25.6501 399.15 26.3501 396.62 27.7601C394.09 29.1701 392.08 31.0901 390.58 33.5201C389.08 35.9501 388.33 38.7501 388.33 41.9001C388.33 45.0501 389.08 47.8001 390.58 50.2501C392.08 52.7001 394.09 54.6301 396.62 56.0401C399.15 57.4501 401.95 58.1501 405.03 58.1501C408.11 58.1501 410.9 57.4501 413.41 56.0401C415.92 54.6401 417.92 52.7101 419.42 50.2501C420.92 47.8001 421.67 45.0201 421.67 41.9001C421.67 38.7801 420.92 35.9501 419.42 33.5201C417.92 31.0901 415.91 29.1701 413.41 27.7601ZM411.84 46.3401C411.18 47.6301 410.26 48.6401 409.1 49.3601C407.94 50.0801 406.58 50.4401 405.02 50.4401C403.46 50.4401 402.09 50.0801 400.92 49.3601C399.74 48.6401 398.82 47.6301 398.16 46.3401C397.5 45.0501 397.16 43.5701 397.16 41.8901C397.16 40.2101 397.49 38.7501 398.16 37.4701C398.82 36.2001 399.75 35.1901 400.92 34.4501C402.1 33.7101 403.47 33.3401 405.02 33.3401C406.57 33.3401 407.94 33.7101 409.1 34.4501C410.26 35.1901 411.17 36.2001 411.84 37.4701C412.5 38.7401 412.84 40.2201 412.84 41.8901C412.84 43.5601 412.51 45.0401 411.84 46.3401Z" fill="white"/>
<path d="M448.81 26.3401V29.6201C447.87 28.5101 446.81 27.6301 445.62 26.9901C443.95 26.1001 441.99 25.6501 439.75 25.6501C436.9 25.6501 434.35 26.3001 432.11 27.5901C429.87 28.8801 428.1 30.6601 426.81 32.9201C425.52 35.1801 424.87 37.7801 424.87 40.7001C424.87 43.6201 425.52 46.2401 426.81 48.5401C428.1 50.8401 429.89 52.6401 432.17 53.9601C434.45 55.2701 437.03 55.9301 439.92 55.9301C442.16 55.9301 444.12 55.5001 445.79 54.6501C446.7 54.1901 447.51 53.5801 448.24 52.8501V55.8201C448.24 57.1501 447.96 58.3101 447.41 59.3001C446.86 60.2901 446.07 61.0401 445.04 61.5501C444.01 62.0601 442.8 62.3201 441.39 62.3201C439.6 62.3201 438.06 61.9001 436.77 61.0701C435.48 60.2301 434.62 59.0901 434.2 57.6501L426.28 60.4401C426.93 62.3801 427.98 64.0601 429.44 65.4801C430.9 66.9101 432.66 68.0201 434.71 68.8201C436.76 69.6201 438.99 70.0201 441.38 70.0201C444.38 70.0201 447.03 69.4101 449.33 68.2001C451.63 66.9801 453.44 65.3001 454.77 63.1501C456.1 61.0001 456.77 58.5601 456.77 55.8301V26.3601H448.79L448.81 26.3401ZM447.36 44.6901C446.77 45.7901 445.94 46.6501 444.88 47.2601C443.82 47.8701 442.56 48.1701 441.12 48.1701C439.68 48.1701 438.39 47.8601 437.27 47.2301C436.15 46.6001 435.27 45.7401 434.65 44.6401C434.02 43.5401 433.71 42.2601 433.71 40.8201C433.71 39.3801 434.02 38.0401 434.65 36.9201C435.28 35.8001 436.15 34.9201 437.27 34.3001C438.39 33.6701 439.67 33.3601 441.12 33.3601C442.57 33.3601 443.76 33.6701 444.82 34.3001C445.88 34.9301 446.72 35.8001 447.33 36.9201C447.94 38.0401 448.24 39.3401 448.24 40.8201C448.24 42.3001 447.95 43.5901 447.36 44.7001V44.6901Z" fill="white"/>
<path d="M35.34 24L24.79 30.09V42.27L35.34 48.36L45.88 42.27V30.09L35.34 24Z" fill="white"/>
<path d="M57.5698 23.34H69.6998L63.6398 12.84L57.5698 23.34Z" fill="#FFBC00"/>
<path d="M57.5698 49.01L63.6398 59.52L69.6998 49.01H57.5698Z" fill="#FFBC00"/>
<path d="M29.27 72.36H41.4L35.34 61.85L29.27 72.36Z" fill="#FFBC00"/>
<path d="M0.970215 49.01L7.04021 59.52L13.1102 49.01H0.970215Z" fill="#FFBC00"/>
<path d="M0.970215 23.34H13.1102L7.04021 12.84L0.970215 23.34Z" fill="#FFBC00"/>
<path d="M29.27 0L35.34 10.51L41.4 0H29.27Z" fill="#FFBC00"/>
<path d="M46.9145 2.04855L39.8745 14.2422L52.0681 21.2822L59.1081 9.08855L46.9145 2.04855Z" fill="#F43BA6"/>
<path d="M71.08 29H57V43.08H71.08V29Z" fill="#F43BA6"/>
<path d="M52.0662 51.0586L39.8726 58.0986L46.9126 70.2923L59.1062 63.2523L52.0662 51.0586Z" fill="#F43BA6"/>
<path d="M18.6084 51.0621L11.5684 63.2557L23.762 70.2957L30.802 58.1021L18.6084 51.0621Z" fill="#F43BA6"/>
<path d="M14.08 29.14H0V43.22H14.08V29.14Z" fill="#F43BA6"/>
<path d="M23.763 2.05473L11.5693 9.09473L18.6093 21.2884L30.803 14.2484L23.763 2.05473Z" fill="#F43BA6"/>
</g>
<defs>
<clipPath id="clip0_94_1383">
<rect width="456.79" height="72.36" fill="white"/>
</clipPath>
</defs>
</svg>
